<svg id="Layer_1" data-name="Layer 1" xmlns="http://www.w3.org/2000/svg" viewBox="0 0 12.92 16"><title>favicon</title><g id="circle"><path d="M541.1,329.1a3,3,0,1,1-3,3A3,3,0,0,1,541.1,329.1Z" transform="translate(-538.12 -320.89)" fill="#39b54a"/><path d="M541.1,335a2.94,2.94,0,1,1,1.15-.23,2.94,2.94,0,0,1-1.15.23m0,0a3,3,0,1,0-3-3A3,3,0,0,0,541.1,335Z" transform="translate(-538.12 -320.89)" fill="#39b54a"/></g><g id="ellispse"><path d="M541.21,329.09a2.54,2.54,0,0,1,.87.15,3.15,3.15,0,0,1,1.64,1.38,4.34,4.34,0,0,1-.37,4.87,3.75,3.75,0,0,1-1.59,1.14,4.44,4.44,0,0,1-1.46.25h-.34a2.93,2.93,0,0,0,1.51-.57,2.75,2.75,0,0,0,1-2.68,3.75,3.75,0,0,0-1.28-2.25l-.42-.36c-.43-.36-.83-.69-.85-1.11s.22-.54.61-.69A2.08,2.08,0,0,1,541.21,329.09Z" transform="translate(-538.12 -320.89)" fill="#39b54a"/><path d="M540.29,336.88H540a2.91,2.91,0,0,0,1.44-.56,2.76,2.76,0,0,0,1-2.69,3.76,3.76,0,0,0-1.29-2.25l-.42-.36c-.43-.35-.83-.69-.84-1.1a.57.57,0,0,1,.15-.38,1.12,1.12,0,0,1,.45-.3,2.06,2.06,0,0,1,.73-.12,2.54,2.54,0,0,1,.87.15,3.15,3.15,0,0,1,1.63,1.37,4.28,4.28,0,0,1,.56,2.53,4.32,4.32,0,0,1-.32,1.3,4.08,4.08,0,0,1-.62,1,3.74,3.74,0,0,1-1.59,1.14,4.44,4.44,0,0,1-1.46.25m0,0a4.41,4.41,0,0,0,1.46-.25,3.74,3.74,0,0,0,1.6-1.14,4.35,4.35,0,0,0,.37-4.88,3.15,3.15,0,0,0-1.64-1.38,2.57,2.57,0,0,0-.87-.15,2.07,2.07,0,0,0-.73.13c-.41.15-.62.42-.61.69,0,.56.72,1,1.27,1.47a3.73,3.73,0,0,1,1.28,2.25,2.75,2.75,0,0,1-1,2.68,3.11,3.11,0,0,1-1.59.58h0s.18,0,.43,0Z" transform="translate(-538.12 -320.89)" fill="#39b54a"/></g><g id="circle-2" data-name="circle"><path d="M541.33,328.69a3,3,0,1,1,3-3A3,3,0,0,1,541.33,328.69Z" transform="translate(-538.12 -320.89)" fill="#e6e6e6"/><path d="M541.33,322.78a2.94,2.94,0,1,1-1.15.23,2.94,2.94,0,0,1,1.15-.23m0,0a3,3,0,1,0,3,3A3,3,0,0,0,541.33,322.75Z" transform="translate(-538.12 -320.89)" fill="#e6e6e6"/></g><g id="ellispse-2" data-name="ellispse"><path d="M541.22,328.7a2.54,2.54,0,0,1-.87-.15,3.15,3.15,0,0,1-1.64-1.38,4.34,4.34,0,0,1,.37-4.87,3.75,3.75,0,0,1,1.59-1.14,4.44,4.44,0,0,1,1.46-.25h.34a2.93,2.93,0,0,0-1.51.57,2.75,2.75,0,0,0-1,2.68,3.75,3.75,0,0,0,1.28,2.25l.42.36c.43.36.83.69.85,1.11s-.22.54-.61.69A2.08,2.08,0,0,1,541.22,328.7Z" transform="translate(-538.12 -320.89)" fill="#e6e6e6"/><path d="M542.14,320.91h.26a2.91,2.91,0,0,0-1.44.56,2.76,2.76,0,0,0-1,2.69,3.76,3.76,0,0,0,1.29,2.25l.42.36c.43.35.83.69.84,1.1a.57.57,0,0,1-.15.38,1.12,1.12,0,0,1-.45.3,2.06,2.06,0,0,1-.73.12,2.54,2.54,0,0,1-.87-.15,3.15,3.15,0,0,1-1.63-1.37,4.28,4.28,0,0,1-.56-2.53,4.32,4.32,0,0,1,.32-1.3,4.08,4.08,0,0,1,.62-1,3.74,3.74,0,0,1,1.59-1.14,4.44,4.44,0,0,1,1.46-.25m0,0a4.41,4.41,0,0,0-1.46.25,3.74,3.74,0,0,0-1.6,1.14,4.35,4.35,0,0,0-.37,4.88,3.15,3.15,0,0,0,1.64,1.38,2.57,2.57,0,0,0,.87.15,2.07,2.07,0,0,0,.73-.13c.41-.15.62-.42.61-.69,0-.56-.72-1-1.27-1.47a3.73,3.73,0,0,1-1.28-2.25,2.75,2.75,0,0,1,1-2.68,3.11,3.11,0,0,1,1.59-.58h0s-.18,0-.43,0Z" transform="translate(-538.12 -320.89)" fill="#e6e6e6"/></g><g id="circle-3" data-name="circle"><path d="M548.07,328.69a3,3,0,1,1,3-3A3,3,0,0,1,548.07,328.69Z" transform="translate(-538.12 -320.89)" fill="#e6e6e6"/><path d="M548.07,322.78a2.94,2.94,0,1,1-1.15.23,2.94,2.94,0,0,1,1.15-.23m0,0a3,3,0,1,0,3,3A3,3,0,0,0,548.07,322.75Z" transform="translate(-538.12 -320.89)" fill="#e6e6e6"/></g><g id="ellispse-3" data-name="ellispse"><path d="M548,328.7a2.54,2.54,0,0,1-.87-.15,3.15,3.15,0,0,1-1.64-1.38,4.34,4.34,0,0,1,.37-4.87,3.75,3.75,0,0,1,1.59-1.14,4.44,4.44,0,0,1,1.46-.25h.34a2.93,2.93,0,0,0-1.51.57,2.75,2.75,0,0,0-1,2.68,3.75,3.75,0,0,0,1.28,2.25l.42.36c.43.36.83.69.85,1.11s-.22.54-.61.69A2.08,2.08,0,0,1,548,328.7Z" transform="translate(-538.12 -320.89)" fill="#e6e6e6"/><path d="M548.88,320.91h.26a2.91,2.91,0,0,0-1.44.56,2.76,2.76,0,0,0-1,2.69,3.76,3.76,0,0,0,1.29,2.25l.42.36c.43.35.83.69.84,1.1a.57.57,0,0,1-.15.38,1.12,1.12,0,0,1-.45.3,2.06,2.06,0,0,1-.73.12,2.54,2.54,0,0,1-.87-.15,3.15,3.15,0,0,1-1.63-1.37,4.28,4.28,0,0,1-.56-2.53,4.32,4.32,0,0,1,.32-1.3,4.08,4.08,0,0,1,.62-1,3.74,3.74,0,0,1,1.59-1.14,4.44,4.44,0,0,1,1.46-.25m0,0a4.41,4.41,0,0,0-1.46.25,3.74,3.74,0,0,0-1.6,1.14,4.35,4.35,0,0,0-.37,4.88,3.15,3.15,0,0,0,1.64,1.38,2.57,2.57,0,0,0,.87.15,2.07,2.07,0,0,0,.73-.13c.41-.15.62-.42.61-.69,0-.56-.72-1-1.27-1.47a3.73,3.73,0,0,1-1.28-2.25,2.75,2.75,0,0,1,1-2.68,3.11,3.11,0,0,1,1.59-.58h0s-.18,0-.43,0Z" transform="translate(-538.12 -320.89)" fill="#e6e6e6"/></g><g id="circle-4" data-name="circle"><path d="M547.84,329.1a3,3,0,1,1-3,3A3,3,0,0,1,547.84,329.1Z" transform="translate(-538.12 -320.89)" fill="#39b54a"/><path d="M547.84,335a2.94,2.94,0,1,1,1.15-.23,2.94,2.94,0,0,1-1.15.23m0,0a3,3,0,1,0-3-3A3,3,0,0,0,547.84,335Z" transform="translate(-538.12 -320.89)" fill="#39b54a"/></g><g id="ellispse-4" data-name="ellispse"><path d="M547.94,329.09a2.54,2.54,0,0,1,.87.15,3.15,3.15,0,0,1,1.64,1.38,4.34,4.34,0,0,1-.37,4.87,3.75,3.75,0,0,1-1.59,1.14,4.44,4.44,0,0,1-1.46.25h-.34a2.93,2.93,0,0,0,1.51-.57,2.75,2.75,0,0,0,1-2.68,3.75,3.75,0,0,0-1.28-2.25l-.42-.36c-.43-.36-.83-.69-.85-1.11s.22-.54.61-.69A2.08,2.08,0,0,1,547.94,329.09Z" transform="translate(-538.12 -320.89)" fill="#39b54a"/><path d="M547,336.88h-.26a2.91,2.91,0,0,0,1.44-.56,2.76,2.76,0,0,0,1-2.69,3.76,3.76,0,0,0-1.29-2.25l-.42-.36c-.43-.35-.83-.69-.84-1.1a.57.57,0,0,1,.15-.38,1.12,1.12,0,0,1,.45-.3,2.06,2.06,0,0,1,.73-.12,2.54,2.54,0,0,1,.87.15,3.15,3.15,0,0,1,1.63,1.37,4.28,4.28,0,0,1,.56,2.53,4.32,4.32,0,0,1-.32,1.3,4.08,4.08,0,0,1-.62,1,3.74,3.74,0,0,1-1.59,1.14,4.44,4.44,0,0,1-1.46.25m0,0a4.41,4.41,0,0,0,1.46-.25,3.74,3.74,0,0,0,1.6-1.14,4.35,4.35,0,0,0,.37-4.88,3.15,3.15,0,0,0-1.64-1.38,2.57,2.57,0,0,0-.87-.15,2.07,2.07,0,0,0-.73.13c-.41.15-.62.42-.61.69,0,.56.72,1,1.27,1.47a3.73,3.73,0,0,1,1.28,2.25,2.75,2.75,0,0,1-1,2.68,3.11,3.11,0,0,1-1.59.58h0s.18,0,.43,0Z" transform="translate(-538.12 -320.89)" fill="#39b54a"/></g></svg>