<svg id="Layer_1" data-name="Layer 1" xmlns="http://www.w3.org/2000/svg" viewBox="0 0 418 517.79">
  <title>icon-1</title>
  <g>
    <g>
      <g id="circle">
        <path d="M431.85,335.67a95.79,95.79,0,1,1-95.79,95.79A95.89,95.89,0,0,1,431.85,335.67Z" transform="translate(-335.58 -70)" fill="#39b54a"/>
        <path d="M431.85,526.76a95,95,0,1,1,37.1-7.49,95,95,0,0,1-37.1,7.49m0,1a96.27,96.27,0,1,0-96.27-96.27A96.27,96.27,0,0,0,431.85,527.72Z" transform="translate(-335.58 -70)" fill="#39b54a"/>
      </g>
      <g id="ellispse">
        <path d="M435.34,335.22a82.36,82.36,0,0,1,28.08,5c21.12,7.22,40.43,23.46,53,44.5,14,23,20.66,52.89,18.22,82-2.31,28-13,54.87-30.2,75.72a121.42,121.42,0,0,1-51.56,36.89,143.79,143.79,0,0,1-47.17,8.18c-4.93,0-8.7-.27-11.07-.48,23.89-2.48,39.73-11.3,48.87-18.37,24.39-17.39,37.13-53.1,31-86.81-5.59-36.48-26.37-59-41.52-72.8-4.33-4-9-7.92-13.51-11.66-13.85-11.49-27-22.34-27.44-35.88-.14-9.15,7.22-17.47,19.7-22.21A67.17,67.17,0,0,1,435.34,335.22Z" transform="translate(-335.58 -70)" fill="#39b54a"/>
        <path d="M405.68,587.25c-3.42,0-6.26-.13-8.5-.28,22.55-2.82,37.63-11.3,46.44-18.12,24.47-17.45,37.25-53.25,31.07-87.05-5.6-36.58-26.43-59.15-41.59-72.95-4.33-4.05-9-7.93-13.53-11.68-13.81-11.46-26.85-22.27-27.34-35.69A18.51,18.51,0,0,1,397,349.2c3.4-4,8.49-7.33,14.71-9.7a66.57,66.57,0,0,1,23.59-4,82.13,82.13,0,0,1,28,5c21.06,7.22,40.32,23.4,52.84,44.39,14,23,20.6,52.8,18.19,81.84a139.87,139.87,0,0,1-10.19,42.07,132,132,0,0,1-20,33.52,121.17,121.17,0,0,1-51.46,36.81,143.54,143.54,0,0,1-47.1,8.18m.22.48a142.84,142.84,0,0,0,47.26-8.21,121,121,0,0,0,51.66-37c15.56-18.89,27.75-45.54,30.26-75.86,2.53-30.11-4.64-59.78-18.25-82.13-13.47-22.58-33.4-37.84-53.1-44.58a83,83,0,0,0-28.16-5,67,67,0,0,0-23.75,4.07c-13.16,5-20,13.75-19.86,22.45.66,18.08,23.42,31.25,41,47.72,18,16.4,36.25,38.79,41.44,72.68,6.05,33.15-6.43,69.13-30.88,86.57-23.63,18.26-52.25,18.29-51.59,18.64,0,0,0,0,.18,0,1,0,5.95.7,13.76.7Z" transform="translate(-335.58 -70)" fill="#39b54a"/>
      </g>
    </g>
    <g>
      <g>
        <g id="circle-2" data-name="circle">
          <path d="M439.32,322.12a95.79,95.79,0,1,1,95.79-95.79A95.89,95.89,0,0,1,439.32,322.12Z" transform="translate(-335.58 -70)" fill="#e6e6e6"/>
          <path d="M439.32,131a95,95,0,1,1-37.1,7.49,95,95,0,0,1,37.1-7.49m0-1a96.27,96.27,0,1,0,96.27,96.27A96.27,96.27,0,0,0,439.32,130.07Z" transform="translate(-335.58 -70)" fill="#e6e6e6"/>
        </g>
        <g id="ellispse-2" data-name="ellispse">
          <path d="M435.83,322.57a82.36,82.36,0,0,1-28.08-5c-21.12-7.22-40.43-23.46-53-44.5-14-23-20.66-52.89-18.22-82,2.31-28,13-54.87,30.2-75.72a121.42,121.42,0,0,1,51.56-36.89,143.79,143.79,0,0,1,47.17-8.18c4.93,0,8.7.27,11.07.48-23.89,2.48-39.73,11.3-48.87,18.37-24.39,17.39-37.13,53.1-31,86.81,5.59,36.48,26.37,59,41.52,72.8,4.33,4,9,7.92,13.51,11.66,13.85,11.49,27,22.34,27.44,35.88.14,9.15-7.22,17.47-19.7,22.21A67.17,67.17,0,0,1,435.83,322.57Z" transform="translate(-335.58 -70)" fill="#e6e6e6"/>
          <path d="M465.49,70.54c3.42,0,6.26.13,8.5.28-22.55,2.82-37.63,11.3-46.44,18.12-24.47,17.45-37.25,53.25-31.07,87.05,5.6,36.58,26.43,59.15,41.59,72.95,4.33,4.05,9,7.93,13.53,11.68,13.81,11.46,26.85,22.27,27.34,35.69a18.51,18.51,0,0,1-4.81,12.28c-3.4,4-8.49,7.33-14.71,9.7a66.57,66.57,0,0,1-23.59,4,82.13,82.13,0,0,1-28-5C386.76,310.13,367.5,293.95,355,273c-14-23-20.6-52.8-18.19-81.84A139.87,139.87,0,0,1,347,149a132,132,0,0,1,20-33.52,121.17,121.17,0,0,1,51.46-36.81,143.54,143.54,0,0,1,47.1-8.18m-.22-.48A142.84,142.84,0,0,0,418,78.26a121,121,0,0,0-51.66,37c-15.56,18.89-27.75,45.54-30.26,75.86-2.53,30.11,4.64,59.78,18.25,82.13,13.47,22.58,33.4,37.84,53.1,44.58a83,83,0,0,0,28.16,5,67,67,0,0,0,23.75-4.07c13.16-5,20-13.75,19.86-22.45-.66-18.08-23.42-31.25-41-47.72-18-16.4-36.25-38.79-41.44-72.68-6.05-33.15,6.43-69.13,30.88-86.57C451.24,71,479.87,71,479.21,70.65c0,0,0,0-.18,0-1,0-5.95-.7-13.76-.7Z" transform="translate(-335.58 -70)" fill="#e6e6e6"/>
        </g>
      </g>
      <g>
        <g id="circle-3" data-name="circle">
          <path d="M657.32,322.12a95.79,95.79,0,1,1,95.79-95.79A95.89,95.89,0,0,1,657.32,322.12Z" transform="translate(-335.58 -70)" fill="#e6e6e6"/>
          <path d="M657.32,131a95,95,0,1,1-37.1,7.49,95,95,0,0,1,37.1-7.49m0-1a96.27,96.27,0,1,0,96.27,96.27A96.27,96.27,0,0,0,657.32,130.07Z" transform="translate(-335.58 -70)" fill="#e6e6e6"/>
        </g>
        <g id="ellispse-3" data-name="ellispse">
          <path d="M653.83,322.57a82.36,82.36,0,0,1-28.08-5c-21.12-7.22-40.43-23.46-53-44.5-14-23-20.66-52.89-18.22-82,2.31-28,13-54.87,30.2-75.72a121.42,121.42,0,0,1,51.56-36.89,143.79,143.79,0,0,1,47.17-8.18c4.93,0,8.7.27,11.07.48-23.89,2.48-39.73,11.3-48.87,18.37-24.39,17.39-37.13,53.1-31,86.81,5.59,36.48,26.37,59,41.52,72.8,4.33,4,9,7.92,13.51,11.66,13.85,11.49,27,22.34,27.44,35.88.14,9.15-7.22,17.47-19.7,22.21A67.17,67.17,0,0,1,653.83,322.57Z" transform="translate(-335.58 -70)" fill="#e6e6e6"/>
          <path d="M683.49,70.54c3.42,0,6.26.13,8.5.28-22.55,2.82-37.63,11.3-46.44,18.12-24.47,17.45-37.25,53.25-31.07,87.05,5.6,36.58,26.43,59.15,41.59,72.95,4.33,4.05,9,7.93,13.53,11.68,13.81,11.46,26.85,22.27,27.34,35.69a18.51,18.51,0,0,1-4.81,12.28c-3.4,4-8.49,7.33-14.71,9.7a66.57,66.57,0,0,1-23.59,4,82.13,82.13,0,0,1-28-5C604.76,310.13,585.5,293.95,573,273c-14-23-20.6-52.8-18.19-81.84A139.87,139.87,0,0,1,565,149a132,132,0,0,1,20-33.52,121.17,121.17,0,0,1,51.46-36.81,143.54,143.54,0,0,1,47.1-8.18m-.22-.48A142.84,142.84,0,0,0,636,78.26a121,121,0,0,0-51.66,37c-15.56,18.89-27.75,45.54-30.26,75.86-2.53,30.11,4.64,59.78,18.25,82.13,13.47,22.58,33.4,37.84,53.1,44.58a83,83,0,0,0,28.16,5,67,67,0,0,0,23.75-4.07c13.16-5,20-13.75,19.86-22.45-.66-18.08-23.42-31.25-41-47.72-18-16.4-36.25-38.79-41.44-72.68-6.05-33.15,6.43-69.13,30.88-86.57C669.24,71,697.87,71,697.21,70.65c0,0,0,0-.18,0-1,0-5.95-.7-13.76-.7Z" transform="translate(-335.58 -70)" fill="#e6e6e6"/>
        </g>
      </g>
    </g>
    <g>
      <g id="circle-4" data-name="circle">
        <path d="M649.85,335.67a95.79,95.79,0,1,1-95.79,95.79A95.89,95.89,0,0,1,649.85,335.67Z" transform="translate(-335.58 -70)" fill="#39b54a"/>
        <path d="M649.85,526.76a95,95,0,1,1,37.1-7.49,95,95,0,0,1-37.1,7.49m0,1a96.27,96.27,0,1,0-96.27-96.27A96.27,96.27,0,0,0,649.85,527.72Z" transform="translate(-335.58 -70)" fill="#39b54a"/>
      </g>
      <g id="ellispse-4" data-name="ellispse">
        <path d="M653.34,335.22a82.36,82.36,0,0,1,28.08,5c21.12,7.22,40.43,23.46,53,44.5,14,23,20.66,52.89,18.22,82-2.31,28-13,54.87-30.2,75.72a121.42,121.42,0,0,1-51.56,36.89,143.79,143.79,0,0,1-47.17,8.18c-4.93,0-8.7-.27-11.07-.48,23.89-2.48,39.73-11.3,48.87-18.37,24.39-17.39,37.13-53.1,31-86.81-5.59-36.48-26.37-59-41.52-72.8-4.33-4-9-7.92-13.51-11.66-13.85-11.49-27-22.34-27.44-35.88-.14-9.15,7.22-17.47,19.7-22.21A67.17,67.17,0,0,1,653.34,335.22Z" transform="translate(-335.58 -70)" fill="#39b54a"/>
        <path d="M623.68,587.25c-3.42,0-6.26-.13-8.5-.28,22.55-2.82,37.63-11.3,46.44-18.12,24.47-17.45,37.25-53.25,31.07-87.05-5.6-36.58-26.43-59.15-41.59-72.95-4.33-4.05-9-7.93-13.53-11.68-13.81-11.46-26.85-22.27-27.34-35.69A18.51,18.51,0,0,1,615,349.2c3.4-4,8.49-7.33,14.71-9.7a66.57,66.57,0,0,1,23.59-4,82.13,82.13,0,0,1,28,5c21.06,7.22,40.32,23.4,52.84,44.39,14,23,20.6,52.8,18.19,81.84a139.87,139.87,0,0,1-10.19,42.07,132,132,0,0,1-20,33.52,121.17,121.17,0,0,1-51.46,36.81,143.54,143.54,0,0,1-47.1,8.18m.22.48a142.84,142.84,0,0,0,47.26-8.21,121,121,0,0,0,51.66-37c15.56-18.89,27.75-45.54,30.26-75.86,2.53-30.11-4.64-59.78-18.25-82.13-13.47-22.58-33.4-37.84-53.1-44.58a83,83,0,0,0-28.16-5,67,67,0,0,0-23.75,4.07c-13.16,5-20,13.75-19.86,22.45.66,18.08,23.42,31.25,41,47.72,18,16.4,36.25,38.79,41.44,72.68,6.05,33.15-6.43,69.13-30.88,86.57-23.63,18.26-52.25,18.29-51.59,18.64,0,0,0,0,.18,0,1,0,5.95.7,13.76.7Z" transform="translate(-335.58 -70)" fill="#39b54a"/>
      </g>
    </g>
  </g>
</svg>
